<svg xmlns="http://www.w3.org/2000/svg" viewBox="0 0 120 120" width="120" height="120">
<defs><radialGradient id="g" cx="0.5" cy="0.3" r="0.8"><stop offset="0" stop-color="#A58AE6"/><stop offset="1" stop-color="#3E2F75"/></radialGradient></defs>
<rect width="120" height="120" fill="url(#g)"/>

<path d="M22 120 C 22 88 38 70 60 70 C 82 70 98 88 98 120 Z" fill="#B87B34"/>
<circle cx="36" cy="40" r="10" fill="#A0682A"/><circle cx="84" cy="40" r="10" fill="#A0682A"/><circle cx="36" cy="40" r="5" fill="#5A3A1E"/><circle cx="84" cy="40" r="5" fill="#5A3A1E"/>
<ellipse cx="60" cy="58" rx="30" ry="27" fill="#D9A653"/>
<ellipse cx="60" cy="70" rx="18" ry="13" fill="#F3E0B4"/>
<circle cx="48" cy="54" r="4.5" fill="#1E1533"/><circle cx="72" cy="54" r="4.5" fill="#1E1533"/><circle cx="49.5" cy="52.5" r="1.4" fill="#FFF"/><circle cx="73.5" cy="52.5" r="1.4" fill="#FFF"/>
<ellipse cx="60" cy="64" rx="6" ry="4" fill="#3A2413"/>
<path d="M46 68 L28 64 M46 71 L28 72 M74 68 L92 64 M74 71 L92 72" stroke="#5A3A1E" stroke-width="1.5"/>
<path d="M56 74 Q 60 78 64 74" stroke="#5A3A1E" stroke-width="2" fill="none"/>
<path d="M40 96 C 50 102 70 102 80 96 L 78 104 C 68 108 52 108 42 104 Z" fill="#8B6BD1"/>
<circle cx="60" cy="102" r="4" fill="#F5D48E"/>
</svg>