<svg xmlns="http://www.w3.org/2000/svg" viewBox="0 0 520 560" width="520" height="560"><defs><radialGradient id="fur" cx=".5" cy=".35" r=".7"><stop offset="0" stop-color="#F0C06A"/><stop offset="1" stop-color="#C98A34"/></radialGradient><linearGradient id="coat" x1="0" y1="0" x2="0" y2="1"><stop offset="0" stop-color="#8B6BD1"/><stop offset="1" stop-color="#4E3A92"/></linearGradient></defs><path d="M70 560 C 70 430 150 360 260 360 C 370 360 450 430 450 560 Z" fill="url(#coat)"/><path d="M260 370 L220 560 L300 560 Z" fill="#F3E0B4"/><path d="M200 380 L260 470 L320 380 L300 372 L260 420 L220 372 Z" fill="#3E2E78"/><circle cx="236" cy="470" r="9" fill="#FFC23D"/><circle cx="284" cy="470" r="9" fill="#FFC23D"/><circle cx="236" cy="510" r="9" fill="#FFC23D"/><circle cx="284" cy="510" r="9" fill="#FFC23D"/><path d="M160 390 C 180 420 190 470 184 560" stroke="#D9A653" stroke-width="6" fill="none"/><path d="M360 390 C 340 420 330 470 336 560" stroke="#D9A653" stroke-width="6" fill="none"/><path d="M190 350 Q 260 400 330 350 L 336 378 Q 260 426 184 378 Z" fill="#FF5E5B"/><circle cx="160" cy="140" r="38" fill="#B87B34"/><circle cx="160" cy="140" r="20" fill="#6E4420"/><circle cx="360" cy="140" r="38" fill="#B87B34"/><circle cx="360" cy="140" r="20" fill="#6E4420"/><ellipse cx="260" cy="230" rx="140" ry="130" fill="url(#fur)"/><ellipse cx="260" cy="290" rx="80" ry="58" fill="#FBEBCB"/><ellipse cx="205" cy="215" rx="17" ry="20" fill="#1E1533"/><circle cx="211" cy="207" r="6" fill="#FFF"/><path d="M183 182 Q 205 172 227 182" stroke="#6E4420" stroke-width="7" fill="none" stroke-linecap="round"/><ellipse cx="315" cy="215" rx="17" ry="20" fill="#1E1533"/><circle cx="321" cy="207" r="6" fill="#FFF"/><path d="M293 182 Q 315 172 337 182" stroke="#6E4420" stroke-width="7" fill="none" stroke-linecap="round"/><ellipse cx="260" cy="262" rx="24" ry="16" fill="#3A2413"/><ellipse cx="253" cy="257" rx="7" ry="4" fill="#FFF" opacity=".4"/><path d="M205 278 L140 264" stroke="#6E4420" stroke-width="3"/><path d="M315 278 L380 264" stroke="#6E4420" stroke-width="3"/><path d="M205 290 L140 288" stroke="#6E4420" stroke-width="3"/><path d="M315 290 L380 288" stroke="#6E4420" stroke-width="3"/><path d="M235 298 Q 260 318 285 298" stroke="#3A2413" stroke-width="6" fill="none" stroke-linecap="round"/><ellipse cx="185" cy="270" rx="18" ry="10" fill="#FF7AB6" opacity=".35"/><ellipse cx="335" cy="270" rx="18" ry="10" fill="#FF7AB6" opacity=".35"/><path d="M150 120 Q 260 40 370 120 L 360 132 Q 260 70 160 132 Z" fill="#3E2E78"/><path d="M180 112 Q 260 20 340 112 Z" fill="#5B3AA8"/><rect x="200" y="96" width="120" height="14" rx="6" fill="#FFC23D"/><path d="M330 80 Q 380 40 400 70 Q 370 70 344 96 Z" fill="#3FD8C4"/></svg>