<svg xmlns="http://www.w3.org/2000/svg" viewBox="0 0 120 120" width="120" height="120">
<defs><radialGradient id="g" cx="0.5" cy="0.3" r="0.8"><stop offset="0" stop-color="#4B6A7E"/><stop offset="1" stop-color="#1B2A34"/></radialGradient></defs>
<rect width="120" height="120" fill="url(#g)"/>

<path d="M24 120 C 26 90 42 78 60 78 C 78 78 94 90 96 120 Z" fill="#2E2A55"/>
<path d="M30 20 L46 50 L38 56 Z" fill="#E86A36"/><path d="M90 20 L74 50 L82 56 Z" fill="#E86A36"/>
<path d="M30 48 C 34 30 86 30 90 48 C 92 64 74 86 60 90 C 46 86 28 64 30 48 Z" fill="#F07A40"/>
<path d="M60 90 C 50 86 40 76 38 66 C 48 70 54 72 60 72 C 66 72 72 70 82 66 C 80 76 70 86 60 90 Z" fill="#F7E6CF"/>
<circle cx="47" cy="56" r="4" fill="#241C10"/><circle cx="73" cy="56" r="4" fill="#241C10"/>
<circle cx="60" cy="76" r="4" fill="#241C10"/>
<path d="M30 40 C 40 26 80 26 90 40 L 88 30 C 76 18 44 18 32 30 Z" fill="#D9A653"/><rect x="26" y="36" width="68" height="6" rx="3" fill="#A6741F"/>
</svg>