<svg xmlns="http://www.w3.org/2000/svg" viewBox="0 0 1600 440" width="1600" height="440" preserveAspectRatio="xMidYMid slice"><defs><linearGradient id="tt" x1="0" y1="0" x2="0" y2="1"><stop offset="0" stop-color="#8A8494"/><stop offset="1" stop-color="#5A5466"/></linearGradient><linearGradient id="tf" x1="0" y1="0" x2="0" y2="1"><stop offset="0" stop-color="#6E3A20"/><stop offset="1" stop-color="#3A1C10"/></linearGradient><linearGradient id="clo" x1="0" y1="0" x2="0" y2="1"><stop offset="0" stop-color="#1F6B52"/><stop offset="1" stop-color="#2E1C60"/></linearGradient><linearGradient id="sleeve" x1="0" y1="0" x2="0" y2="1"><stop offset="0" stop-color="#FF8A5E"/><stop offset="1" stop-color="#C2452A"/></linearGradient></defs><path d="M-60 90 L 1660 90 L 1600 440 L 0 440 Z" fill="url(#tt)" stroke="#2A1A2E" stroke-width="5"/><path d="M-60 96 L 1660 96" fill="none" stroke="#FFD29A" stroke-width="5" stroke-linecap="round" stroke-linejoin="round" opacity=".8"/><path d="M-60 140 L 1660 140" fill="none" stroke="#7A4020" stroke-width="2" stroke-linecap="round" stroke-linejoin="round" opacity=".35"/><path d="M-20 190 L 1620 190" fill="none" stroke="#7A4020" stroke-width="2" stroke-linecap="round" stroke-linejoin="round" opacity=".35"/><path d="M20 240 L 1580 240" fill="none" stroke="#7A4020" stroke-width="2" stroke-linecap="round" stroke-linejoin="round" opacity=".35"/><path d="M60 290 L 1540 290" fill="none" stroke="#7A4020" stroke-width="2" stroke-linecap="round" stroke-linejoin="round" opacity=".35"/><path d="M100 340 L 1500 340" fill="none" stroke="#7A4020" stroke-width="2" stroke-linecap="round" stroke-linejoin="round" opacity=".35"/><path d="M140 390 L 1460 390" fill="none" stroke="#7A4020" stroke-width="2" stroke-linecap="round" stroke-linejoin="round" opacity=".35"/><path d="M480 90 L 1120 90 L 1150 170 L 450 170 Z" fill="url(#clo)" stroke="#2A1A2E" stroke-width="4" stroke-linejoin="round" stroke-linecap="round" /><path d="M470 162 L 1130 162" fill="none" stroke="#D9A653" stroke-width="3" stroke-linecap="round" stroke-linejoin="round" /><path d="M380 440 L 1220 440 L 1180 330 L 420 330 Z" fill="#7A2A18" stroke="#2A1A2E" stroke-width="4" stroke-linejoin="round" stroke-linecap="round" /><path d="M428 340 L 1172 340" fill="none" stroke="#FFC23D" stroke-width="3" stroke-linecap="round" stroke-linejoin="round" /><path d="M-40 440 L 170 440 Q 240 370 292 340 L 246 256 Q 120 300 -40 330 Z" fill="url(#sleeve)" stroke="#2A1A2E" stroke-width="5" stroke-linejoin="round" stroke-linecap="round" /><path d="M40 420 Q 120 360 200 330" fill="none" stroke="#9A2E1A" stroke-width="4" stroke-linecap="round" stroke-linejoin="round" opacity=".5"/><path d="M20 336 Q 140 300 240 262" fill="none" stroke="#FFC2A0" stroke-width="4" stroke-linecap="round" stroke-linejoin="round" opacity=".7"/><path d="M232 262 Q 262 240 296 256 L 314 332 Q 288 352 258 340 Z" fill="#FFF3DC" stroke="#2A1A2E" stroke-width="4" stroke-linejoin="round" stroke-linecap="round" /><path d="M284 300 Q 280 250 330 232 Q 344 214 360 228 Q 372 216 386 234 Q 400 228 406 248 Q 420 252 412 272 Q 404 292 388 300 Q 408 314 398 330 Q 372 342 344 326 Q 306 334 284 300 Z" fill="#E0A57A" stroke="#2A1A2E" stroke-width="5" stroke-linejoin="round" stroke-linecap="round" /><path d="M290 300 Q 300 330 344 326 Q 372 342 398 330 Q 380 336 350 318 Q 312 322 290 300 Z" fill="#B87850" /><path d="M358 232 Q 356 250 362 262 M384 238 Q 380 256 388 268 M404 252 Q 398 266 402 276" fill="none" stroke="#2A1A2E" stroke-width="2.5" stroke-linecap="round" stroke-linejoin="round" opacity=".6"/><path d="M330 236 Q 352 222 372 232" fill="none" stroke="#FFD9B8" stroke-width="3" stroke-linecap="round" stroke-linejoin="round" opacity=".8"/><g transform="translate(1600 0) scale(-1 1)"><path d="M-40 440 L 170 440 Q 240 370 292 340 L 246 256 Q 120 300 -40 330 Z" fill="url(#sleeve)" stroke="#2A1A2E" stroke-width="5" stroke-linejoin="round" stroke-linecap="round" /><path d="M40 420 Q 120 360 200 330" fill="none" stroke="#9A2E1A" stroke-width="4" stroke-linecap="round" stroke-linejoin="round" opacity=".5"/><path d="M20 336 Q 140 300 240 262" fill="none" stroke="#FFC2A0" stroke-width="4" stroke-linecap="round" stroke-linejoin="round" opacity=".7"/><path d="M232 262 Q 262 240 296 256 L 314 332 Q 288 352 258 340 Z" fill="#FFF3DC" stroke="#2A1A2E" stroke-width="4" stroke-linejoin="round" stroke-linecap="round" /><path d="M284 300 Q 280 250 330 232 Q 344 214 360 228 Q 372 216 386 234 Q 400 228 406 248 Q 420 252 412 272 Q 404 292 388 300 Q 408 314 398 330 Q 372 342 344 326 Q 306 334 284 300 Z" fill="#E0A57A" stroke="#2A1A2E" stroke-width="5" stroke-linejoin="round" stroke-linecap="round" /><path d="M290 300 Q 300 330 344 326 Q 372 342 398 330 Q 380 336 350 318 Q 312 322 290 300 Z" fill="#B87850" /><path d="M358 232 Q 356 250 362 262 M384 238 Q 380 256 388 268 M404 252 Q 398 266 402 276" fill="none" stroke="#2A1A2E" stroke-width="2.5" stroke-linecap="round" stroke-linejoin="round" opacity=".6"/><path d="M330 236 Q 352 222 372 232" fill="none" stroke="#FFD9B8" stroke-width="3" stroke-linecap="round" stroke-linejoin="round" opacity=".8"/><circle cx="372.0" cy="236.0" r="7.0" fill="#FFC23D" stroke="#2A1A2E" stroke-width="3" /></g></svg>